# xmcd
#
# Track frame offsets:
# 150
# 17727
# 38105
# 57125
# 80412
# 100957
# 131422
# 153445
# 169325
# 196697
# 210495
# 225747
# 245682
#
# Disc length: 3533 seconds
#
# Revision: 0
# Processed by: cddbd v1.4PL0 Copyright (c) Steve Scherf et al.
# Submitted via: Axialis_AX_CDPlayer 2.6
#
DISCID=a30dcb0d
DTITLE=Grey Ghost - Grey Ghost
DYEAR=1900
DGENRE=
TTITLE0=Way Out on the Desert
TTITLE1=Watching Every Devil
TTITLE2=Why We Can't Agree
TTITLE3=Ida B
TTITLE4=Sheik of Araby
TTITLE5=You're Nobody 'Til Somebody Loves You
TTITLE6=Somebody Stole My Gal
TTITLE7=I Cried for You
TTITLE8=Talk of the Town
TTITLE9=Crack Shack Boogie
TTITLE10=One Room Country Shack
TTITLE11=Winter Time Blues
TTITLE12=Home at Last
EXTD=
EXTT0=
EXTT1=
EXTT2=
EXTT3=
EXTT4=
EXTT5=
EXTT6=
EXTT7=
EXTT8=
EXTT9=
EXTT10=
EXTT11=
EXTT12=
PLAYORDER=
